<svg xmlns="http://www.w3.org/2000/svg" viewBox="0 0 370.23075 83.86047">
  <defs>
    <style>
      .a {
        fill: #fff;
      }
    </style>
  </defs>
  <title>logo</title>
  <g>
    <path class="a" d="M39.502,2.74427a19.4,19.4,0,0,1,.58736,3.34678q.05907,22.73313.02651,45.46649c0,.97774,0,1.95547,0,2.79062,2.35452.39294,4.647.32418,6.38147,1.27419.75545.41378.35741,2.91894.49856,4.47289.15018,1.65345-.25236,2.79506-2.24313,2.7084-1.40146-.061-2.80772-.0118-4.29432-.0118,0,3.78558-.10324,7.31755.07608,10.83511a3.3428,3.3428,0,0,0,1.62364,2.34993c3.0136,1.471,2.50972,4.06157,2.18628,6.45559a2.6088,2.6088,0,0,1-1.64288,1.25116c-7.23.08278-14.46129.03605-21.692.0708a2.02788,2.02788,0,0,1-2.03336-1.89623c-.14711-2.21975-.307-4.29,1.99485-5.71275a3.201,3.201,0,0,0,1.21405-2.294c.12946-3.54783.05617-7.10307.05617-10.99031-3.517,0-6.90236.00979-10.28762-.00285-3.16308-.0118-6.33273.05766-9.48469-.14209A4.59344,4.59344,0,0,1,.41024,61.5313,1.02191,1.02191,0,0,1,0,60.7109V54.15333a1.46535,1.46535,0,0,1,.2096-.75465c.82129-1.36729,1.6294-2.74284,2.47525-4.09476Q16.12353,27.825,29.59573,6.36715a39.2199,39.2199,0,0,1,2.90594-3.62288ZM22.20092,54.65632V30.76421L7.21588,54.65632Z"/>
    <path class="a" d="M77.004,2.74427c-.01937,23.74673-.05709,47.49351.01163,71.24.00264.91361,1.30265,2.4958,2.07885,3.13107a4.81873,4.81873,0,0,1,.96672,5.68872,2.26385,2.26385,0,0,1-1.897,1.00471c-7.24845.07288-14.498.05427-21.7471.031-1.24362-.004-3.05576.0825-3.02252-1.74408.03292-1.80781-.54943-4.36057,1.8856-5.038,3.3916-.94351,3.6825-3.06893,3.65953-6.01727-.11161-14.331-.05045-28.66333-.05047-42.99519V25.09446a32.81589,32.81589,0,0,1-5.12932,1.013c-1.38842.05182-3.29276,1.08894-4.05691-1.1528-.82559-2.42192.20786-4.404,2.23175-5.6831a85.26593,85.26593,0,0,0,10.98949-7.65543c2.89016-2.54418,5.08007-5.88383,7.57946-8.87191Z"/>
    <path class="a" d="M124.86076,81.79335a1.739,1.739,0,0,1-1.72447,1.94492c-7.78466.00484-14.75837.03116-21.73-.07583a2.5133,2.5133,0,0,1-1.77944-1.66875c-.22479-2.09159-.56688-4.26446,1.98912-5.63.78308-.41836,1.16388-2.14147,1.21689-3.2907.66153-14.34263,5.22262-27.5068,11.92448-40.03808,2.07808-3.88563,4.20809-7.74348,6.30154-11.62094l.01132-.021a1.73038,1.73038,0,0,0-1.53831-2.534h-2.0457c-4.74834,0-9.50093.121-14.24338-.04611-2.76353-.09735-4.32453,1.04-5.347,3.50088a5.077,5.077,0,0,1-6.70631,2.826,2.08755,2.08755,0,0,1-.96057-1.69078c.43642-5.88919.90652-11.77918,1.5931-17.64251a3.06757,3.06757,0,0,1,2.227-1.96264c13.12826-.11674,26.25779-.08912,39.51585-.08718a1.7403,1.7403,0,0,1,1.725,1.49886,9.40628,9.40628,0,0,1-1.07917,5.24021c-5.25231,11.36416-9.52594,23.11469-11.373,35.48856-1.25832,8.42984-1.2544,17.0535-1.692,25.59678a7.09553,7.09553,0,0,0,2.19158,5.95219C124.23134,78.41,124.64918,80.03475,124.86076,81.79335Z"/>
    <g>
      <path class="a" d="M159.53348,10.84863H155.2161V7.96338a5.15,5.15,0,0,0-.13867-1.5708.59456.59456,0,0,0-.61035-.312.6357.6357,0,0,0-.67579.37939,5.72316,5.72316,0,0,0-.14453,1.64063v7.71093a5.335,5.335,0,0,0,.14453,1.5791.7357.7357,0,0,0,1.27637-.001,6.05883,6.05883,0,0,0,.14844-1.73731V13.56592h4.31738v.647a12.77845,12.77845,0,0,1-.36426,3.65576,3.73764,3.73764,0,0,1-1.61035,1.88965,5.51255,5.51255,0,0,1-3.07031.811,6.36114,6.36114,0,0,1-3.12793-.687,3.33691,3.33691,0,0,1-1.62988-1.90185,12.45054,12.45054,0,0,1-.40039-3.65576V9.47461a21.562,21.562,0,0,1,.123-2.69141,3.76409,3.76409,0,0,1,.7334-1.728,4.08169,4.08169,0,0,1,1.69141-1.30713,6.923,6.923,0,0,1,5.63476.26025,3.53642,3.53642,0,0,1,1.62989,1.83838,11.04156,11.04156,0,0,1,.39062,3.4248Z"/>
      <path class="a" d="M170.94559,13.34033q0,2.502-.11816,3.54248a3.96819,3.96819,0,0,1-2.41407,3.2251,6.10948,6.10948,0,0,1-2.46093.46143,6.25853,6.25853,0,0,1-2.39453-.43555,3.99382,3.99382,0,0,1-2.47657-3.20459,35.05383,35.05383,0,0,1-.123-3.58887V10.5q0-2.502.11816-3.543a3.9671,3.9671,0,0,1,2.415-3.22461,6.09636,6.09636,0,0,1,2.46094-.46142,6.25118,6.25118,0,0,1,2.39355.436,3.98734,3.98734,0,0,1,2.47656,3.2041A35.05028,35.05028,0,0,1,170.94559,10.5Zm-4.31738-5.45508a5.13305,5.13305,0,0,0-.12793-1.48193.50989.50989,0,0,0-.52832-.32275.59169.59169,0,0,0-.51758.26123,3.71553,3.71553,0,0,0-.17969,1.54345v7.752a7.6455,7.6455,0,0,0,.11817,1.78418.51488.51488,0,0,0,.54882.33838.5305.5305,0,0,0,.56348-.38965,8.213,8.213,0,0,0,.12305-1.856Z"/>
      <path class="a" d="M172.555,3.61963h4.30664a11.35777,11.35777,0,0,1,3.09179.31787,3.0683,3.0683,0,0,1,1.69727,1.28564,5.79189,5.79189,0,0,1,.64551,3.12012,3.36394,3.36394,0,0,1-.45606,2.0293,3.18622,3.18622,0,0,1-1.7998.88135,3.19477,3.19477,0,0,1,2.03027,1.123,4.33409,4.33409,0,0,1,.5332,2.40625v1.53858a6.1021,6.1021,0,0,1-.38476,2.49316,2.07472,2.07472,0,0,1-1.22461,1.1084,12.58565,12.58565,0,0,1-3.44531.29736H172.555ZM176.87137,6.46v3.69141c.18555-.00684.32813-.01026.43164-.01026.42285,0,.69336-.104.80957-.313a5.10973,5.10973,0,0,0,.17481-1.78906,2.88622,2.88622,0,0,0-.14453-1.09179.687.687,0,0,0-.374-.395A3.32673,3.32673,0,0,0,176.87137,6.46Zm0,6.27539v4.645a1.84185,1.84185,0,0,0,1.16406-.28711,2.00845,2.00845,0,0,0,.252-1.26123V14.28369a2.18435,2.18435,0,0,0-.22656-1.292A2.02262,2.02262,0,0,0,176.87137,12.73535Z"/>
      <path class="a" d="M184.15262,3.61963h4.34766a10.20274,10.20274,0,0,1,2.71191.27685,3.033,3.033,0,0,1,1.42578.79981,2.74615,2.74615,0,0,1,.64551,1.2666,11.2884,11.2884,0,0,1,.16992,2.30176v1.4458a6.04191,6.04191,0,0,1-.32812,2.31738,2.25184,2.25184,0,0,1-1.20508,1.11768,5.7023,5.7023,0,0,1-2.292.38965H188.469V20.2207h-4.31641ZM188.469,6.46v4.22461c.12305.00684.22949.01025.31836.01025a.99558.99558,0,0,0,.82519-.29248A2.14086,2.14086,0,0,0,189.844,9.1875V7.82373a1.59906,1.59906,0,0,0-.26758-1.10742A1.67268,1.67268,0,0,0,188.469,6.46Z"/>
      <path class="a" d="M194.69364,3.61963h7.19824V6.94189H199.01v3.148h2.69727v3.15821H199.01v3.65039H202.179V20.2207h-7.48535Z"/>
      <path class="a" d="M216.74051,3.61963V20.2207h-3.77343l-.00586-11.20752-1.502,11.20752h-2.67578l-1.585-10.95117-.00488,10.95117H203.4202V3.61963h5.58594q.249,1.49707.51269,3.5293l.61231,4.22265.99219-7.75195Z"/>
      <path class="a" d="M218.47293,3.61963h7.19825V6.94189h-2.88184v3.148h2.69727v3.15821h-2.69727v3.65039h3.16895V20.2207h-7.48536Z"/>
      <path class="a" d="M237.1243,3.61963V20.2207h-4.3164V13.24805h-1.293V20.2207h-4.31641V3.61963h4.31641v5.937h1.293v-5.937Z"/>
      <path class="a" d="M248.78348,3.61963V20.2207h-4.3164V13.24805h-1.293V20.2207H238.8577V3.61963h4.31641v5.937h1.293v-5.937Z"/>
      <path class="a" d="M260.5745,16.33447a5.47806,5.47806,0,0,1-.48145,2.666,2.12519,2.12519,0,0,1-1.46094,1.01513,16.8857,16.8857,0,0,1-3.12207.20508H250.5159V3.60938h4.32715V9.30029h.667a14.48478,14.48478,0,0,1,3.02442.23584,2.3491,2.3491,0,0,1,1.5332,1.041,4.875,4.875,0,0,1,.50684,2.52734Zm-4.32617-.50244V13.43262a2.25816,2.25816,0,0,0-.21094-1.27149,1.98327,1.98327,0,0,0-1.19434-.25634v5.45507a2.04423,2.04423,0,0,0,1.11231-.21045Q256.24832,16.94,256.24833,15.832Zm10.12011,4.38867h-4.32715V3.60938h4.32715Z"/>
      <path class="a" d="M277.58622,20.2207h-3.60938V12.66357l-2.24609,7.55713h-3.78321V3.60938h3.60938V11.105l2.41992-7.4956h3.60938ZM273.91532,0h1.74316a3.50462,3.50462,0,0,1-.81543,2.24561,2.65387,2.65387,0,0,1-2.09668.85107,2.62559,2.62559,0,0,1-2.09668-.85645A3.54293,3.54293,0,0,1,269.844,0h1.74414q.123,1.40478,1.1582,1.40479Q273.79228,1.40479,273.91532,0Z"/>
      <path class="a" d="M293.09012,10.84863h-4.31738V7.96338a5.15,5.15,0,0,0-.13867-1.5708.59456.59456,0,0,0-.61035-.312.6357.6357,0,0,0-.67579.37939,5.72316,5.72316,0,0,0-.14453,1.64063v7.71093a5.335,5.335,0,0,0,.14453,1.5791.7357.7357,0,0,0,1.27637-.001,6.05883,6.05883,0,0,0,.14844-1.73731V13.56592h4.31738v.647a12.77845,12.77845,0,0,1-.36426,3.65576,3.73764,3.73764,0,0,1-1.61035,1.88965,5.51255,5.51255,0,0,1-3.07031.811,6.36116,6.36116,0,0,1-3.12793-.687,3.33691,3.33691,0,0,1-1.62988-1.90185,12.45054,12.45054,0,0,1-.40039-3.65576V9.47461a21.562,21.562,0,0,1,.123-2.69141,3.7642,3.7642,0,0,1,.7334-1.728,4.08176,4.08176,0,0,1,1.69141-1.30713,6.923,6.923,0,0,1,5.63476.26025,3.53642,3.53642,0,0,1,1.62989,1.83838,11.04156,11.04156,0,0,1,.39062,3.4248Z"/>
      <path class="a" d="M303.33426,3.61963V6.94189h-2.56347V20.2207H296.4534V6.94189h-2.55273V3.61963Z"/>
      <path class="a" d="M311.78055,3.61963,314.2493,20.2207h-4.41113l-.23242-2.98388H308.0618L307.802,20.2207h-4.46289l2.20214-16.60107ZM309.49344,14.294q-.32812-2.82057-.6582-6.97266-.65918,4.76807-.82813,6.97266Z"/>
      <path class="a" d="M324.90848,3.61963V20.2207h-4.3164V13.24805h-1.293V20.2207H314.9827V3.61963h4.31641v5.937h1.293v-5.937Z"/>
      <path class="a" d="M338.98661,23.08154h-2.98438V20.2207h-6.97265v2.86084h-2.97266V16.75488h.88086a28.97685,28.97685,0,0,0,1.14355-5.36816,54.85325,54.85325,0,0,0,.44629-7.2749V3.60938h9.57715v13.125h.88184Zm-5.209-6.34716V6.89062h-1.28125v.12305a47.93789,47.93789,0,0,1-1.02539,9.72071Z"/>
      <path class="a" d="M347.79227,3.61963,350.261,20.2207h-4.41113l-.23242-2.98388h-1.544l-.25977,2.98388h-4.46289L341.553,3.61963ZM345.50516,14.294q-.32812-2.82057-.6582-6.97266-.65919,4.76807-.82813,6.97266Z"/>
      <path class="a" d="M350.99442,3.61963h4.34766a10.20279,10.20279,0,0,1,2.71191.27685,3.033,3.033,0,0,1,1.42578.79981,2.74634,2.74634,0,0,1,.64551,1.2666,11.2884,11.2884,0,0,1,.16992,2.30176v1.4458a6.04191,6.04191,0,0,1-.32812,2.31738,2.25184,2.25184,0,0,1-1.20508,1.11768,5.70235,5.70235,0,0,1-2.292.38965h-1.15917V20.2207h-4.31641ZM355.31083,6.46v4.22461c.123.00684.22949.01025.31835.01025a.99559.99559,0,0,0,.8252-.29248,2.14086,2.14086,0,0,0,.23145-1.21484V7.82373a1.59906,1.59906,0,0,0-.26758-1.10742A1.67272,1.67272,0,0,0,355.31083,6.46Z"/>
      <path class="a" d="M370.23075,3.61963V6.94189h-2.56348V20.2207h-4.31738V6.94189h-2.55274V3.61963Z"/>
      <path class="a" d="M157.11356,32.8125a2.574,2.574,0,0,1,1.4043,1.0415,7.64347,7.64347,0,0,1,.46093,3.39063,8.3114,8.3114,0,0,1-.45117,3.07275,3.2057,3.2057,0,0,1-1.55859,1.66211,6.19992,6.19992,0,0,1-2.83985.56934,6.10806,6.10806,0,0,1-3.09179-.66113,3.21411,3.21411,0,0,1-1.47656-1.62012,10.80019,10.80019,0,0,1-.35352-3.32764v-1.3125h4.14258v2.69678a4.39184,4.39184,0,0,0,.12793,1.36914.55438.55438,0,0,0,.56933.292.61681.61681,0,0,0,.63575-.36914,6.89333,6.89333,0,0,0,.15332-1.92773V36.54a3.36388,3.36388,0,0,0-.21485-1.39453,1.06506,1.06506,0,0,0-.63574-.5791,6.53069,6.53069,0,0,0-1.62988-.15918V31.99756a8.337,8.337,0,0,0,1.82422-.11279.79772.79772,0,0,0,.50293-.49219,3.39184,3.39184,0,0,0,.15332-1.18946v-.92285a2.411,2.411,0,0,0-.17872-1.14843.62023.62023,0,0,0-.55957-.27686.60791.60791,0,0,0-.58886.29248,3.07914,3.07914,0,0,0-.15918,1.24561v1.36377h-4.14258v-1.415q0-2.37891,1.08691-3.21485a5.7,5.7,0,0,1,3.45606-.83545q2.96191,0,4.01953,1.15772a4.60391,4.60391,0,0,1,1.05566,3.21777,4.02042,4.02042,0,0,1-.37988,2.01367A3.39367,3.39367,0,0,1,157.11356,32.8125Z"/>
      <path class="a" d="M168.05106,25.61963l2.46875,16.60107h-4.41113l-.23243-2.98388h-1.54394l-.25977,2.98388h-4.46289l2.20215-16.60107ZM165.764,36.294q-.32812-2.82057-.6582-6.97266-.65919,4.76806-.82813,6.97266Z"/>
      <path class="a" d="M171.25321,25.60938h4.32715l.0205,7.01367q1.22022-.03077,1.26172-1.35352l.082-3.24023a3.45511,3.45511,0,0,1,.69727-2.41992h3.98828a3.72961,3.72961,0,0,0-.57422,2.50195l.02051,2.85058q.02051,2.584-2.91211,2.94288,2.93262.35887,2.91211,2.98388l-.02051,2.64551a4.63668,4.63668,0,0,0,.57422,2.68652h-3.98828a3.211,3.211,0,0,1-.69727-2.41992V36.56055a1.30175,1.30175,0,0,0-1.34375-1.374l-.0205,7.03418h-4.32715Z"/>
      <path class="a" d="M189.97391,25.61963l2.46875,16.60107h-4.41113l-.23242-2.98388h-1.544l-.25976,2.98388h-4.4629l2.20215-16.60107ZM187.6868,36.294q-.32812-2.82057-.6582-6.97266-.65918,4.76806-.82813,6.97266Z"/>
      <path class="a" d="M200.83622,32.8125a2.57394,2.57394,0,0,1,1.40429,1.0415,7.64327,7.64327,0,0,1,.46094,3.39063,8.3114,8.3114,0,0,1-.45117,3.07275,3.20568,3.20568,0,0,1-1.5586,1.66211,6.1999,6.1999,0,0,1-2.83984.56934,6.10813,6.10813,0,0,1-3.0918-.66113,3.2142,3.2142,0,0,1-1.47656-1.62012,10.80059,10.80059,0,0,1-.35351-3.32764v-1.3125h4.14257v2.69678a4.39184,4.39184,0,0,0,.12793,1.36914.5544.5544,0,0,0,.56934.292.6168.6168,0,0,0,.63574-.36914,6.89292,6.89292,0,0,0,.15332-1.92773V36.54a3.36408,3.36408,0,0,0-.21484-1.39453,1.06509,1.06509,0,0,0-.63574-.5791,6.53078,6.53078,0,0,0-1.62989-.15918V31.99756a8.33686,8.33686,0,0,0,1.82422-.11279.79772.79772,0,0,0,.50293-.49219,3.3916,3.3916,0,0,0,.15332-1.18946v-.92285a2.41115,2.41115,0,0,0-.17871-1.14843.62024.62024,0,0,0-.55957-.27686.60792.60792,0,0,0-.58887.29248,3.07933,3.07933,0,0,0-.15918,1.24561v1.36377H192.93v-1.415q0-2.37891,1.08691-3.21485a5.7,5.7,0,0,1,3.45605-.83545q2.96192,0,4.01954,1.15772a4.60391,4.60391,0,0,1,1.05566,3.21777,4.02042,4.02042,0,0,1-.37988,2.01367A3.39374,3.39374,0,0,1,200.83622,32.8125Z"/>
      <path class="a" d="M214.23758,25.61963V42.2207h-4.3164V35.24805h-1.293V42.2207H204.3118V25.61963h4.31641v5.937h1.293v-5.937Z"/>
      <path class="a" d="M226.02958,38.33447a5.47806,5.47806,0,0,1-.48145,2.666,2.12519,2.12519,0,0,1-1.46094,1.01513,16.8857,16.8857,0,0,1-3.12207.20508H215.971V25.60938h4.32715v5.69091h.667a14.48484,14.48484,0,0,1,3.02442.23584,2.3491,2.3491,0,0,1,1.5332,1.041,4.875,4.875,0,0,1,.50684,2.52734ZM221.7034,37.832V35.43262a2.25819,2.25819,0,0,0-.21093-1.27149,1.98327,1.98327,0,0,0-1.19434-.25634v5.45507a2.04419,2.04419,0,0,0,1.1123-.21045Q221.70341,38.94,221.7034,37.832Zm10.12012,4.38867h-4.32715V25.60938h4.32715Z"/>
      <path class="a" d="M242.15458,25.61963l-1.51758,7.3418,2.28613,9.25927h-3.999a54.84529,54.84529,0,0,1-1.3125-6.0498q-.1626,1.57983-.45508,3.34277l-.40625,2.707h-4.2041l1.56933-9.25927-1.56933-7.3418H236.72q.11427.68554.44922,2.28564.27246,1.21948.44239,2.24659l.92285-4.53223Z"/>
      <path class="a" d="M257.1702,42.2207H252.844V28.93164H251.5618V42.2207h-4.32715V25.60938h9.93555Z"/>
      <path class="a" d="M258.89286,25.61963h7.19824v3.32226h-2.88184v3.148h2.69727v3.15821h-2.69727v3.65039h3.169V42.2207h-7.48535Z"/>
      <path class="a" d="M267.61942,25.61963h4.34766a10.20279,10.20279,0,0,1,2.71191.27685,3.033,3.033,0,0,1,1.42578.79981,2.74634,2.74634,0,0,1,.64551,1.2666,11.2884,11.2884,0,0,1,.16992,2.30176v1.4458a6.04191,6.04191,0,0,1-.32812,2.31738,2.25184,2.25184,0,0,1-1.20508,1.11768,5.70235,5.70235,0,0,1-2.292.38965h-1.15917V42.2207h-4.31641ZM271.93583,28.46v4.22461c.123.00684.22949.01025.31835.01025a.99559.99559,0,0,0,.8252-.29248,2.14086,2.14086,0,0,0,.23145-1.21484V29.82373a1.59906,1.59906,0,0,0-.26758-1.10742A1.67272,1.67272,0,0,0,271.93583,28.46Z"/>
      <path class="a" d="M278.16043,25.61963h7.19825v3.32226h-2.88184v3.148h2.69727v3.15821h-2.69727v3.65039h3.16895V42.2207h-7.48536Z"/>
      <path class="a" d="M286.887,25.61963h4.30664a11.35777,11.35777,0,0,1,3.09179.31787,3.0683,3.0683,0,0,1,1.69727,1.28564,5.79189,5.79189,0,0,1,.64551,3.12012,3.36394,3.36394,0,0,1-.45606,2.0293,3.18619,3.18619,0,0,1-1.7998.88135,3.19474,3.19474,0,0,1,2.03027,1.123,4.33408,4.33408,0,0,1,.53321,2.40625v1.53858a6.1019,6.1019,0,0,1-.38477,2.49316,2.07472,2.07472,0,0,1-1.22461,1.1084,12.58565,12.58565,0,0,1-3.44531.29736H286.887ZM291.2034,28.46v3.69141c.18555-.00684.32813-.01026.43164-.01026.42286,0,.69336-.104.80957-.313a5.10947,5.10947,0,0,0,.17481-1.78906,2.88622,2.88622,0,0,0-.14453-1.09179.687.687,0,0,0-.374-.395A3.32673,3.32673,0,0,0,291.2034,28.46Zm0,6.27539v4.645a1.8419,1.8419,0,0,0,1.16407-.28711,2.00853,2.00853,0,0,0,.25195-1.26123V36.28369a2.18435,2.18435,0,0,0-.22656-1.292A2.02259,2.02259,0,0,0,291.2034,34.73535Z"/>
      <path class="a" d="M308.34793,35.34033q0,2.502-.11816,3.54248a3.9682,3.9682,0,0,1-2.41406,3.2251,6.10953,6.10953,0,0,1-2.46094.46143,6.25853,6.25853,0,0,1-2.39453-.43555,3.99383,3.99383,0,0,1-2.47656-3.20459,35.053,35.053,0,0,1-.123-3.58887V32.5q0-2.502.11816-3.543a3.96715,3.96715,0,0,1,2.415-3.22461,6.0964,6.0964,0,0,1,2.46094-.46142,6.25123,6.25123,0,0,1,2.39356.436,3.98739,3.98739,0,0,1,2.47656,3.2041,35.0541,35.0541,0,0,1,.123,3.58887Zm-4.31738-5.45508a5.13305,5.13305,0,0,0-.12793-1.48193.50989.50989,0,0,0-.52832-.32275.59169.59169,0,0,0-.51758.26123,3.7156,3.7156,0,0,0-.17968,1.54345v7.752a7.64633,7.64633,0,0,0,.11816,1.78418.51489.51489,0,0,0,.54883.33838.53049.53049,0,0,0,.56347-.38965,8.21232,8.21232,0,0,0,.123-1.856Z"/>
      <path class="a" d="M317.61747,32.8125a2.57394,2.57394,0,0,1,1.40429,1.0415,7.64327,7.64327,0,0,1,.46094,3.39063,8.3114,8.3114,0,0,1-.45117,3.07275,3.20568,3.20568,0,0,1-1.5586,1.66211,6.1999,6.1999,0,0,1-2.83984.56934,6.10813,6.10813,0,0,1-3.0918-.66113,3.2142,3.2142,0,0,1-1.47656-1.62012,10.80059,10.80059,0,0,1-.35351-3.32764v-1.3125h4.14257v2.69678a4.39184,4.39184,0,0,0,.12793,1.36914.5544.5544,0,0,0,.56934.292.6168.6168,0,0,0,.63574-.36914,6.89292,6.89292,0,0,0,.15332-1.92773V36.54a3.36408,3.36408,0,0,0-.21484-1.39453,1.06509,1.06509,0,0,0-.63574-.5791,6.53078,6.53078,0,0,0-1.62989-.15918V31.99756a8.33686,8.33686,0,0,0,1.82422-.11279.79772.79772,0,0,0,.50293-.49219,3.3916,3.3916,0,0,0,.15332-1.18946v-.92285a2.41115,2.41115,0,0,0-.17871-1.14843.62024.62024,0,0,0-.55957-.27686.60792.60792,0,0,0-.58887.29248,3.07933,3.07933,0,0,0-.15918,1.24561v1.36377h-4.14257v-1.415q0-2.37891,1.08691-3.21485a5.7,5.7,0,0,1,3.45605-.83545q2.96191,0,4.01954,1.15772a4.60391,4.60391,0,0,1,1.05566,3.21777,4.02042,4.02042,0,0,1-.37988,2.01367A3.39374,3.39374,0,0,1,317.61747,32.8125Z"/>
      <path class="a" d="M330.95829,35.34033q0,2.502-.11817,3.54248a3.9682,3.9682,0,0,1-2.41406,3.2251,6.10953,6.10953,0,0,1-2.46094.46143,6.25853,6.25853,0,0,1-2.39453-.43555A3.99383,3.99383,0,0,1,321.094,38.9292a35.053,35.053,0,0,1-.123-3.58887V32.5q0-2.502.11817-3.543a3.96711,3.96711,0,0,1,2.415-3.22461,6.0964,6.0964,0,0,1,2.46094-.46142,6.25119,6.25119,0,0,1,2.39356.436,3.98739,3.98739,0,0,1,2.47656,3.2041,35.05326,35.05326,0,0,1,.123,3.58887Zm-4.31739-5.45508a5.13305,5.13305,0,0,0-.12793-1.48193.50989.50989,0,0,0-.52832-.32275.59166.59166,0,0,0-.51757.26123,3.71535,3.71535,0,0,0-.17969,1.54345v7.752a7.64633,7.64633,0,0,0,.11816,1.78418.51489.51489,0,0,0,.54883.33838.5305.5305,0,0,0,.56348-.38965,8.21318,8.21318,0,0,0,.123-1.856Z"/>
      <path class="a" d="M332.56766,25.60938h4.32715l.02051,7.01367q1.22021-.03077,1.26172-1.35352l.082-3.24023a3.45511,3.45511,0,0,1,.69726-2.41992h3.98828a3.72962,3.72962,0,0,0-.57421,2.50195l.0205,2.85058q.02052,2.584-2.91211,2.94288,2.93262.35887,2.91211,2.98388l-.0205,2.64551a4.63669,4.63669,0,0,0,.57421,2.68652h-3.98828a3.211,3.211,0,0,1-.69726-2.41992V36.56055a1.30175,1.30175,0,0,0-1.34375-1.374l-.02051,7.03418h-4.32715Z"/>
    </g>
  </g>
</svg>
