<svg xmlns="http://www.w3.org/2000/svg" xmlns:xlink="http://www.w3.org/1999/xlink" viewBox="0 0 271.3019 53.21226">
  <defs>
    <style>
      .a {
        fill: url(#a);
      }

      .b {
        fill: url(#b);
      }

      .c {
        fill: url(#c);
      }

      .d {
        fill: url(#d);
      }

      .e {
        fill: url(#e);
      }

      .f {
        fill: url(#f);
      }

      .g {
        fill: url(#g);
      }

      .h {
        fill: url(#h);
      }

      .i {
        fill: url(#i);
      }

      .j {
        fill: url(#j);
      }
    </style>
    <linearGradient id="a" data-name="Безымянный градиент 7" x1="-18.33922" y1="18.86826" x2="290.99412" y2="80.86826" gradientUnits="userSpaceOnUse">
      <stop offset="0" stop-color="#f26f3f"/>
      <stop offset="1" stop-color="#f3893d"/>
    </linearGradient>
    <linearGradient id="b" x1="-14.08224" y1="-2.37085" x2="295.25109" y2="59.62915" xlink:href="#a"/>
    <linearGradient id="c" x1="-17.42301" y1="14.29706" x2="291.91033" y2="76.29706" xlink:href="#a"/>
    <linearGradient id="d" x1="-13.16553" y1="-6.94455" x2="296.1678" y2="55.05545" xlink:href="#a"/>
    <linearGradient id="e" x1="-9.94262" y1="-23.02445" x2="299.39071" y2="38.97555" xlink:href="#a"/>
    <linearGradient id="f" x1="-16.23163" y1="8.35298" x2="293.1017" y2="70.35298" xlink:href="#a"/>
    <linearGradient id="g" x1="-11.98263" y1="-12.84631" x2="297.3507" y2="49.15369" xlink:href="#a"/>
    <linearGradient id="h" x1="-11.06045" y1="-17.44729" x2="298.27288" y2="44.55271" xlink:href="#a"/>
    <linearGradient id="i" x1="-16.12907" y1="7.84129" x2="293.20426" y2="69.84129" xlink:href="#a"/>
    <linearGradient id="j" x1="-14.97628" y1="2.08971" x2="294.35706" y2="64.08971" xlink:href="#a"/>
  </defs>
  <title>logo-ln</title>
  <g>
    <path class="a" d="M25.00209,0c.84625.31348.72446,1.04737.725,1.711q.00846,9.779.00465,19.55809.00034,5.69945.00011,11.39889v1.46267c1.07681,0,2.02194.00882,2.96682-.00244A1.31041,1.31041,0,0,1,30.212,35.56863c.053,3.91816.25137,3.505-3.19918,3.509-.35619.00042-.71238.00006-1.07592.00006,0,2.462-.11284,4.84462.07206,7.20388.05221.66624.90179,1.35138,1.51719,1.87254.86854.73555,1.56008,3.18349.94748,4.128a1.38089,1.38089,0,0,1-1.01924.4474c-4.67934.02864-9.35891.01973-14.03842.01732A1.00671,1.00671,0,0,1,12.25668,51.694c-.12749-1.47152-.26894-2.88033,1.31694-3.78227a1.64518,1.64518,0,0,0,.70256-1.1831c.06436-2.50239.03217-5.00726.03217-7.651-.4879,0-.91619.00006-1.34448,0-3.79963-.00068-7.59946-.02324-11.39875.0119C.49313,39.09944.1572,38.703.05448,37.6224a12.20761,12.20761,0,0,1,2.20405-8.08161c5.79277-9.007,11.40085-18.133,17.04719-27.23362A4.61078,4.61078,0,0,1,21.88209,0ZM14.34794,18.32922l-.25969-.10843L4.32907,34.03946H14.34794Z"/>
    <path class="b" d="M135.16208,0c.84235.31665.72254,1.04939.72276,1.71314q.00312,9.11793-.00656,18.23585-.00351,6.29858-.00775,12.59714c-.00029.47047,0,.94094,0,1.59848,1.072,0,2.01562.00952,2.959-.00263a1.31857,1.31857,0,0,1,1.52493,1.43275c.07,3.857.20159,3.49244-3.10908,3.487-.39312-.00064-.78626-.00009-1.19268-.00009,0,2.45041-.13307,4.79724.07746,7.11285.067.73732.97442,1.47229,1.62853,2.063.77131.69649,1.4333,3.248.827,4.04871a1.46622,1.46622,0,0,1-1.04395.42554c-4.63876.02824-9.27774.02032-13.91668.01923-.76676-.00018-1.14192-.34174-1.18838-1.15731-.08124-1.42642-.18268-2.7414,1.3118-3.68917a2.79861,2.79861,0,0,0,.8173-1.99147c.108-1.91342.00416-3.83776.04995-5.7562.02005-.84008-.27363-1.0963-1.1072-1.08807-3.83876.03789-7.6781.02156-11.51722.01663-1.60712-.00205-1.60042-.13575-1.75949-1.68332a11.76057,11.76057,0,0,1,2.201-7.83761c5.77844-9.01466,11.39154-18.13554,17.03466-27.2364A4.63154,4.63154,0,0,1,132.04208,0ZM124.51574,18.30323l-.28556-.07121-9.74655,15.80089h10.03211Z"/>
    <path class="c" d="M49.72208,0q.00431,22.905-.01313,45.80994A2.54643,2.54643,0,0,0,51.18938,48.515c.85961.40688,1.4465,2.98364.89371,3.75937a1.40351,1.40351,0,0,1-1.0102.45469c-4.95658.02914-9.91342.014-14.87014.02732-.8058.00218-1.18017-.36428-1.18868-1.14442-.00566-.51874.023-1.03872-.003-1.55617a1.6205,1.6205,0,0,1,1.30129-1.73535c1.94929-.70223,1.99095-.80283,1.99107-2.849q.00082-14.8703.00025-29.74059v-1.523c-1.3255.27484-2.50886.58423-3.71206.74633-.75464.10167-1.74437.58785-2.14092-.59877a2.98048,2.98048,0,0,1,.91112-3.41976c1.29-.7145,2.61929-1.36478,3.87114-2.1404a28.1728,28.1728,0,0,0,7.15765-6.83944C44.92735,1.27214,45.54278.65025,46.12208,0Z"/>
    <path class="d" d="M159.88207,0q-.01475,22.90583-.05045,45.8116a2.5655,2.5655,0,0,0,1.47044,2.71563c.87248.41951,1.44211,2.968.87239,3.75262a1.42605,1.42605,0,0,1-1.02672.42962c-4.91681.02749-9.83381.01541-14.75076.02273-.79028.00118-1.18892-.34534-1.17264-1.14959.01052-.519.0354-1.04063-.00105-1.5572a1.5169,1.5169,0,0,1,1.214-1.65612c2.01775-.75022,2.09051-.87492,2.08782-2.93082q-.01971-15.05056-.05281-30.1011c-.00072-.35216-.04134-.70424-.06781-1.12736-1.353.27769-2.62151.57795-3.90444.79124-1.60875.26746-1.86659-.03955-1.97307-1.63135a2.55262,2.55262,0,0,1,1.78667-2.8261,25.4449,25.4449,0,0,0,9.06309-7.1237C154.366,2.23084,155.4702,1.13719,156.52207,0Z"/>
    <path class="e" d="M258.4497,48.9173c-.36976.28368-.72123.59592-1.11249.8459a36.06741,36.06741,0,0,1-4.267,2.63823c-4.872,2.2226-9.32294-.39817-9.83388-5.71858-.15247-1.58789-.233-3.1887-.23682-4.78386q-.03281-13.67419.0036-27.34848c.0022-.86586-.08992-1.49395-1.02775-1.87518-.84905-.34513-1.21732-2.10258-.85179-3.34761.295-1.00483,1.13092-.85153,1.87392-.85373,3.03868-.009,6.07865.04541,9.11556-.02889,1.146-.028,1.50313.46241,1.49221,1.471-.00434.39975.00375.79963.00378,1.19945q.00053,15.11367.0147,30.2273a13.1108,13.1108,0,0,0,.343,3.19437,2.05793,2.05793,0,0,0,2.57092,1.58631,2.41324,2.41324,0,0,0,2.20561-2.4003q.01266-14.45393.00657-28.90787a2.65394,2.65394,0,0,0-1.20768-2.45048c-.65481-.42536-1.03128-2.96993-.52556-3.51919a1.43084,1.43084,0,0,1,.95567-.35786c3.43837-.02527,6.87706-.00676,10.31551-.02377.71283-.00353,1.022.27579,1.00011.9939-.02549.83873.003,1.679.003,2.51863q.001,17.03288-.01175,34.06571a2.75272,2.75272,0,0,0,1.25666,2.75526c.67283.40007,1.02624,2.96626.54035,3.567a1.34836,1.34836,0,0,1-.94283.35065c-3.27844.02456-6.55711.01558-9.83572.01372-1.01537-.00058-1.57228-.44-1.51527-1.52927.03695-.70552.007-1.41455.007-2.122Z"/>
    <path class="f" d="M79.56523,10.7629c-4.697,0-9.17409-.01925-13.65082.01233a2.41677,2.41677,0,0,0-2.30337,1.9714c-.57933,2.0486-2.00919,2.431-3.84155,2.3394-.78671-.03932-1.21458-.28112-1.1402-1.13271.34078-3.9018.66692-7.8049,1.0157-11.706A1.2255,1.2255,0,0,1,60.89917,1.0462c.31879-.02257.63891-.0372.95843-.03728,8.12-.002,16.24.01779,24.35978-.02452,1.09817-.00572,1.60574.30593,1.37866,1.4089a15.09917,15.09917,0,0,1-.7848,3.08883C83.15,13.7295,80.14293,22.19982,79.09215,31.19041c-.56381,4.824-.43935,9.73-.585,14.60024a3.117,3.117,0,0,0,1.48945,2.83662,3.5479,3.5479,0,0,1,.61413,3.74225,1.32312,1.32312,0,0,1-.93659.35925c-4.59987.02288-9.1999.0092-13.79983.023a1.05413,1.05413,0,0,1-1.19148-1.17c-.04868-1.3578-.21787-2.71031,1.38863-3.4996.41344-.20313.67511-1.0783.69874-1.65731.3638-8.91554,3.05069-17.17045,7.09-25.03316,1.60607-3.12632,3.3496-6.182,5.02662-9.27195C79.09169,11.74226,79.272,11.35141,79.56523,10.7629Z"/>
    <path class="g" d="M189.53752,10.7413c-.62443,0-1.01658-.00006-1.40872,0-3.83915.00074-7.67943.05585-11.51691-.02362a3.05988,3.05988,0,0,0-3.15261,2.04619c-.97829,2.14978-1.51393,2.42269-3.83365,2.30392-.74334-.03806-1.12663-.3106-1.05986-1.0889.33466-3.90063.65959-7.8021,1.00541-11.70173a1.23294,1.23294,0,0,1,1.23948-1.21863c.35824-.02781.71853-.041,1.07789-.041,8.0782-.00032,16.1565.02237,24.23449-.01948,1.11287-.00576,1.60057.33062,1.37553,1.42206a15.00631,15.00631,0,0,1-.79932,3.08553c-3.65518,8.201-6.65132,16.62937-7.70652,25.5712-.578,4.89845-.4388,9.883-.584,14.82989a3.02413,3.02413,0,0,0,1.36924,2.65546,3.29757,3.29757,0,0,1,.75531,3.6946,1.17025,1.17025,0,0,1-.86731.4525q-6.95817.04155-13.9166-.00027a1.273,1.273,0,0,1-.90663-.43148c-.67572-.93749-.10115-3.13419.76993-3.89735a3.02071,3.02071,0,0,0,1.08043-1.81894,60.53951,60.53951,0,0,1,7.38876-25.6704c1.53978-2.93535,3.15764-5.82973,4.73692-8.74439C189.02465,11.76649,189.21306,11.37708,189.53752,10.7413Z"/>
    <path class="h" d="M229.57686,16.64117c.301-.93254.57222-1.876.91007-2.795a37.138,37.138,0,0,1,1.50153-3.77,3.52187,3.52187,0,0,1,3.51231-2.05694,3.26016,3.26016,0,0,1,2.92692,2.47265,12.29813,12.29813,0,0,1,.18212,7.53017A2.81358,2.81358,0,0,1,236.1257,20.299a2.68711,2.68711,0,0,1-2.73827-1.74465,5.27548,5.27548,0,0,0-.48917-.82122,1.00669,1.00669,0,0,0-1.83.13307,4.22526,4.22526,0,0,0-.44862,1.82689c-.03664,8.95343-.06053,17.90716.00252,26.86019a3.14574,3.14574,0,0,0,1.10276,1.93267c.84463.77312,1.53525,2.74042.98717,3.75406a1.29844,1.29844,0,0,1-.98626.46845c-4.03692.03238-8.07417.02327-12.11134.021-.94112-.00053-1.35136-.47245-1.357-1.422-.007-1.17289-.07844-2.28027,1.14481-3.04609.35428-.2218.51435-.98775.51571-1.5049.02856-10.83236.04036-21.66492-.02394-32.497a2.90527,2.90527,0,0,0-1.04837-1.96028c-1.09334-.86032-.86174-1.91071-.69656-2.94005.165-1.02849,1.08118-.884,1.82779-.88651,2.55818-.00871,5.1173.037,7.67422-.02,1.16794-.02608,1.56361.463,1.54453,1.568-.03769,2.18562-.01111,4.37234-.01111,6.55861Z"/>
    <path class="i" d="M102.09508,35.68657c-1.79266,0-3.5857.02165-5.37786-.0084a3.01414,3.01414,0,0,0-2.54268,1.05623c-.61428.72072-3.12066.94117-3.78716.34139a1.1575,1.1575,0,0,1-.3142-.94289c.76828-3.16526,1.556-6.32695,2.43522-9.46249a1.56448,1.56448,0,0,1,1.2176-.7273c1.86821-.0575,3.74139-.01876,5.61072.04523a6.26208,6.26208,0,0,0,4.43869-1.25858c.76784-.59979,2.326-.241,3.52092-.18128.17135.00857.51726.82754.42294,1.17344-.816,2.99256-1.66447,5.97865-2.60954,8.93266C104.6422,36.116,103.32008,36.02037,102.09508,35.68657Z"/>
    <path class="j" d="M212.88858,46.59066A6.84255,6.84255,0,0,1,210.88,51.67317a4.55646,4.55646,0,0,1-7.10077-.33976,8.16143,8.16143,0,0,1,.63188-9.93884,4.70116,4.70116,0,0,1,6.49552.125A6.55817,6.55817,0,0,1,212.88858,46.59066Z"/>
  </g>
</svg>
