<?xml version="1.0" encoding="utf-8"?><svg width="2098" height="1588" viewBox="0 0 2098 1588" xmlns="http://www.w3.org/2000/svg" xmlns:xlink="http://www.w3.org/1999/xlink"><view id="check" viewBox="1587.44 510 352.62 352.62"/><svg width="352.62" height="352.62" viewBox="0 0 352.62 352.62" x="1587.44" y="510" xmlns="http://www.w3.org/2000/svg"><path d="M337.222 22.952c-15.912-8.568-33.66 7.956-44.064 17.748-23.867 23.256-44.063 50.184-66.708 74.664-25.092 26.928-48.348 53.856-74.052 80.173-14.688 14.688-30.6 30.6-40.392 48.96-22.032-21.421-41.004-44.677-65.484-63.648C28.774 167.385-.602 157.593.01 190.029c1.224 42.229 38.556 87.517 66.096 116.28 11.628 12.24 26.928 25.092 44.676 25.704 21.42 1.224 43.452-24.48 56.304-38.556 22.645-24.48 41.005-52.021 61.812-77.112 26.928-33.048 54.468-65.485 80.784-99.145 16.524-20.808 68.544-72.217 27.54-94.248zM26.937 187.581c-.612 0-1.224 0-2.448.611-2.448-.611-4.284-1.224-6.732-2.448 1.836-1.224 4.896-.612 9.18 1.837z"/></svg><view id="clock" viewBox="2041.03 735.12 41.3 41.3"/><svg viewBox="0 0 41.3 41.3" width="41.3" height="41.3" x="2041.03" y="735.12" xmlns="http://www.w3.org/2000/svg"><path d="M20.642 0c5.698 0 10.857 2.317 14.602 6.047 3.73 3.746 6.047 8.905 6.047 14.603s-2.317 10.857-6.047 14.603c-3.746 3.73-8.904 6.047-14.602 6.047S9.786 38.983 6.056 35.253A20.572 20.572 0 0 1 .008 20.65 20.573 20.573 0 0 1 6.055 6.047 20.576 20.576 0 0 1 20.642 0zm10.524 19.523c.619 0 1.111.508 1.111 1.127s-.492 1.127-1.111 1.127H20.642c-.413 0-.778-.238-.968-.571l-.016-.016-.016-.032v-.016l-.016-.032-.016-.032v-.016l-.016-.032-.016-.016v-.032l-.016-.032v-.016l-.016-.032v-.064l-.016-.016V7.206c0-.619.492-1.111 1.111-1.111s1.127.492 1.127 1.111v12.317h9.398zm2.491-11.888c-3.333-3.333-7.936-5.381-13.015-5.381S10.96 4.301 7.627 7.635A18.408 18.408 0 0 0 2.246 20.65c0 5.079 2.063 9.682 5.381 13.016 3.333 3.333 7.936 5.381 13.015 5.381s9.682-2.048 13.015-5.381a18.355 18.355 0 0 0 5.397-13.016 18.35 18.35 0 0 0-5.397-13.015z"/></svg><view id="close" viewBox="1993.06 735.12 47.97 47.97"/><svg viewBox="0 0 47.97 47.97" width="47.97" height="47.97" x="1993.06" y="735.12" xmlns="http://www.w3.org/2000/svg"><path d="M28.228 23.986L47.092 5.122a2.998 2.998 0 0 0 0-4.242 2.998 2.998 0 0 0-4.242 0L23.986 19.744 5.121.88a2.998 2.998 0 0 0-4.242 0 2.998 2.998 0 0 0 0 4.242l18.865 18.864L.879 42.85a2.998 2.998 0 1 0 4.242 4.241l18.865-18.864L42.85 47.091c.586.586 1.354.879 2.121.879s1.535-.293 2.121-.879a2.998 2.998 0 0 0 0-4.242L28.228 23.986z"/></svg><view id="date" viewBox="1075.44 0 512 512"/><svg height="512" width="512" viewBox="0 0 512 512" x="1075.44" xmlns="http://www.w3.org/2000/svg"><path d="M512 30h-61V0h-30v30h-60V0h-30v30h-60V0h-30v30h-60V0h-30v30H91V0H61v30H0v482h512V30zM30 60h31v30h30V60h60v30h30V60h60v30h30V60h60v30h30V60h60v30h30V60h31v60H30zm0 422V150h452v332z"/><path d="M271 211h60v30h-60zm0 90h60v30h-60zm-90 0h60v30h-60zm-90 0h60v30H91zm270-90h60v30h-60zm0 90h60v30h-60zm-90 90h60v30h-60zm-90 0h60v30h-60zm-90 0h60v30H91zm270 0h60v30h-60z"/></svg><view id="envelope" viewBox="512 1075.4299999999998 511.63 511.63"/><svg width="511.63" height="511.63" viewBox="0 0 511.63 511.63" x="512" y="1075.4299999999998" xmlns="http://www.w3.org/2000/svg"><path d="M49.106 178.729c6.472 4.567 25.981 18.131 58.528 40.685 32.548 22.554 57.482 39.92 74.803 52.099 1.903 1.335 5.946 4.237 12.131 8.71 6.186 4.476 11.326 8.093 15.416 10.852 4.093 2.758 9.041 5.852 14.849 9.277 5.806 3.422 11.279 5.996 16.418 7.7 5.14 1.718 9.898 2.569 14.275 2.569h.575c4.377 0 9.137-.852 14.277-2.569 5.137-1.704 10.615-4.281 16.416-7.7 5.804-3.429 10.752-6.52 14.845-9.277 4.093-2.759 9.229-6.376 15.417-10.852 6.184-4.477 10.232-7.375 12.135-8.71 17.508-12.179 62.051-43.11 133.615-92.79 13.894-9.703 25.502-21.411 34.827-35.116 9.332-13.699 13.993-28.07 13.993-43.105 0-12.564-4.523-23.319-13.565-32.264-9.041-8.947-19.749-13.418-32.117-13.418H45.679c-14.655 0-25.933 4.948-33.832 14.844C3.949 79.562 0 91.934 0 106.779c0 11.991 5.236 24.985 15.703 38.974 10.466 13.99 21.604 24.983 33.403 32.976z"/><path d="M483.072 209.275c-62.424 42.251-109.824 75.087-142.177 98.501-10.849 7.991-19.65 14.229-26.409 18.699-6.759 4.473-15.748 9.041-26.98 13.702-11.228 4.668-21.692 6.995-31.401 6.995h-.578c-9.707 0-20.177-2.327-31.405-6.995-11.228-4.661-20.223-9.229-26.98-13.702-6.755-4.47-15.559-10.708-26.407-18.699-25.697-18.842-72.995-51.68-141.896-98.501C17.987 202.047 8.375 193.762 0 184.437v226.685c0 12.57 4.471 23.319 13.418 32.265 8.945 8.949 19.701 13.422 32.264 13.422h420.266c12.56 0 23.315-4.473 32.261-13.422 8.949-8.949 13.418-19.694 13.418-32.265V184.437c-8.186 9.132-17.7 17.417-28.555 24.838z"/></svg><view id="exchange" viewBox="563.43 0 512.01 512.01"/><svg viewBox="0 0 512.01 512.01" width="512.01" height="512.01" x="563.43" xmlns="http://www.w3.org/2000/svg"><path d="M372.653 244.726l22.56 22.56 112-112c6.204-6.241 6.204-16.319 0-22.56l-112-112-22.56 22.72 84.8 84.64H.013v32h457.44l-84.8 84.64zm139.36 107.36H54.573l84.8-84.64-22.72-22.72-112 112c-6.204 6.241-6.204 16.319 0 22.56l112 112 22.56-22.56-84.64-84.64h457.44v-32z"/></svg><view id="facebook" viewBox="1940.06 639 96.12 96.12"/><svg width="96.12" height="96.12" viewBox="0 0 96.12 96.12" x="1940.06" y="639" xmlns="http://www.w3.org/2000/svg"><path d="M72.089.02L59.624 0C45.62 0 36.57 9.285 36.57 23.656v10.907H24.037a1.96 1.96 0 0 0-1.96 1.961v15.803a1.96 1.96 0 0 0 1.96 1.96H36.57v39.876a1.96 1.96 0 0 0 1.96 1.96h16.352a1.96 1.96 0 0 0 1.96-1.96V54.287h14.654a1.96 1.96 0 0 0 1.96-1.96l.006-15.803a1.963 1.963 0 0 0-1.961-1.961H56.842v-9.246c0-4.444 1.059-6.7 6.848-6.7l8.397-.003a1.96 1.96 0 0 0 1.959-1.96V1.98A1.96 1.96 0 0 0 72.089.02z"/></svg><view id="flag" viewBox="1075.44 512 512 512"/><svg viewBox="0 0 512 512" width="512" height="512" x="1075.44" y="512" xmlns="http://www.w3.org/2000/svg"><path d="M256 0C153.755 0 70.573 83.182 70.573 185.426c0 126.888 165.939 313.167 173.004 321.035 6.636 7.391 18.222 7.378 24.846 0 7.065-7.868 173.004-194.147 173.004-321.035C441.425 83.182 358.244 0 256 0zm0 278.719c-51.442 0-93.292-41.851-93.292-93.293S204.559 92.134 256 92.134s93.291 41.851 93.291 93.293-41.85 93.292-93.291 93.292z"/></svg><view id="instagram" viewBox="1023.63 1075.4299999999998 511 511"/><svg height="511" viewBox="0 0 511 511.9" width="511" x="1023.63" y="1075.4299999999998" xmlns="http://www.w3.org/2000/svg"><path d="M510.95 150.5c-1.2-27.2-5.598-45.898-11.9-62.102-6.5-17.199-16.5-32.597-29.6-45.398-12.802-13-28.302-23.102-45.302-29.5-16.296-6.3-34.898-10.7-62.097-11.898C334.648.3 325.949 0 256.449 0s-78.199.3-105.5 1.5c-27.199 1.2-45.898 5.602-62.097 11.898-17.204 6.5-32.602 16.5-45.403 29.602-13 12.8-23.097 28.3-29.5 45.3-6.3 16.302-10.699 34.9-11.898 62.098C.75 177.801.449 186.5.449 256s.301 78.2 1.5 105.5c1.2 27.2 5.602 45.898 11.903 62.102 6.5 17.199 16.597 32.597 29.597 45.398 12.801 13 28.301 23.102 45.301 29.5 16.3 6.3 34.898 10.7 62.102 11.898 27.296 1.204 36 1.5 105.5 1.5s78.199-.296 105.5-1.5c27.199-1.199 45.898-5.597 62.097-11.898a130.934 130.934 0 0 0 74.903-74.898c6.296-16.301 10.699-34.903 11.898-62.102 1.2-27.3 1.5-36 1.5-105.5s-.102-78.2-1.3-105.5zm-46.098 209c-1.102 25-5.301 38.5-8.801 47.5-8.602 22.3-26.301 40-48.602 48.602-9 3.5-22.597 7.699-47.5 8.796-27 1.204-35.097 1.5-103.398 1.5s-76.5-.296-103.403-1.5c-25-1.097-38.5-5.296-47.5-8.796C94.551 451.5 84.45 445 76.25 436.5c-8.5-8.3-15-18.3-19.102-29.398-3.5-9-7.699-22.602-8.796-47.5-1.204-27-1.5-35.102-1.5-103.403s.296-76.5 1.5-103.398c1.097-25 5.296-38.5 8.796-47.5C61.25 94.199 67.75 84.1 76.352 75.898c8.296-8.5 18.296-15 29.398-19.097 9-3.5 22.602-7.7 47.5-8.801 27-1.2 35.102-1.5 103.398-1.5 68.403 0 76.5.3 103.403 1.5 25 1.102 38.5 5.3 47.5 8.8 11.097 4.098 21.199 10.598 29.398 19.098 8.5 8.301 15 18.301 19.102 29.403 3.5 9 7.699 22.597 8.8 47.5 1.2 27 1.5 35.097 1.5 103.398s-.3 76.301-1.5 103.301zm0 0"/><path d="M256.45 124.5c-72.598 0-131.5 58.898-131.5 131.5s58.902 131.5 131.5 131.5c72.6 0 131.5-58.898 131.5-131.5s-58.9-131.5-131.5-131.5zm0 216.8c-47.098 0-85.302-38.198-85.302-85.3s38.204-85.3 85.301-85.3c47.102 0 85.301 38.198 85.301 85.3s-38.2 85.3-85.3 85.3zm167.402-222c0 16.954-13.747 30.7-30.704 30.7-16.953 0-30.699-13.746-30.699-30.7 0-16.956 13.746-30.698 30.7-30.698 16.956 0 30.703 13.742 30.703 30.699zm0 0"/></svg><view id="menu" viewBox="1940.06 735.12 53 53"/><svg viewBox="0 0 53 53" width="53" height="53" x="1940.06" y="735.12" xmlns="http://www.w3.org/2000/svg"><path d="M2 13.5h49a2 2 0 0 0 0-4H2a2 2 0 0 0 0 4zm0 15h49a2 2 0 0 0 0-4H2a2 2 0 0 0 0 4zm0 15h49a2 2 0 0 0 0-4H2a2 2 0 0 0 0 4z"/></svg><view id="phone" viewBox="1587.44 862.62 348.08 348.08"/><svg width="348.08" height="348.08" viewBox="0 0 348.08 348.08" x="1587.44" y="862.62" xmlns="http://www.w3.org/2000/svg"><path d="M340.273 275.083l-53.755-53.761c-10.707-10.664-28.438-10.34-39.518.744l-27.082 27.076a792.327 792.327 0 0 1-5.344-2.973c-17.102-9.476-40.509-22.464-65.14-47.113-24.704-24.701-37.704-48.144-47.209-65.257-1.003-1.813-1.964-3.561-2.913-5.221l18.176-18.149 8.936-8.947c11.097-11.1 11.403-28.826.721-39.521L73.39 8.194c-10.682-10.68-28.421-10.356-39.518.744l-15.15 15.237.414.411c-5.08 6.482-9.325 13.958-12.484 22.02C3.74 54.28 1.927 61.603 1.098 68.941-6 127.785 20.89 181.564 93.866 254.541c100.875 100.868 182.167 93.248 185.674 92.876 7.638-.913 14.958-2.738 22.397-5.627 7.992-3.122 15.463-7.361 21.941-12.43l.331.294 15.348-15.029c11.074-11.098 11.393-28.83.716-39.542z"/></svg><view id="play" viewBox="1587.44 0 510 510"/><svg width="510" height="510" viewBox="0 0 510 510" x="1587.44" xmlns="http://www.w3.org/2000/svg"><path d="M204 369.75L357 255 204 140.25v229.5zM255 0C114.75 0 0 114.75 0 255s114.75 255 255 255 255-114.75 255-255S395.25 0 255 0zm0 459c-112.2 0-204-91.8-204-204S142.8 51 255 51s204 91.8 204 204-91.8 204-204 204z"/></svg><view id="right-arrow" viewBox="1940.06 510 129 129"/><svg viewBox="0 0 129 129" width="129" height="129" x="1940.06" y="510" xmlns="http://www.w3.org/2000/svg"><path d="M40.4 121.3c-.8.8-1.8 1.2-2.9 1.2s-2.1-.4-2.9-1.2c-1.6-1.6-1.6-4.2 0-5.8l51-51-51-51c-1.6-1.6-1.6-4.2 0-5.8 1.6-1.6 4.2-1.6 5.8 0l53.9 53.9c1.6 1.6 1.6 4.2 0 5.8l-53.9 53.9z"/></svg><view id="twitter" viewBox="0 1075.4299999999998 512 512"/><svg viewBox="0 0 512 512" width="512" height="512" y="1075.4299999999998" xmlns="http://www.w3.org/2000/svg"><path d="M512 97.248c-19.04 8.352-39.328 13.888-60.48 16.576 21.76-12.992 38.368-33.408 46.176-58.016-20.288 12.096-42.688 20.64-66.56 25.408C411.872 60.704 384.416 48 354.464 48c-58.112 0-104.896 47.168-104.896 104.992 0 8.32.704 16.32 2.432 23.936-87.264-4.256-164.48-46.08-216.352-109.792-9.056 15.712-14.368 33.696-14.368 53.056 0 36.352 18.72 68.576 46.624 87.232-16.864-.32-33.408-5.216-47.424-12.928v1.152c0 51.008 36.384 93.376 84.096 103.136-8.544 2.336-17.856 3.456-27.52 3.456-6.72 0-13.504-.384-19.872-1.792 13.6 41.568 52.192 72.128 98.08 73.12-35.712 27.936-81.056 44.768-130.144 44.768-8.608 0-16.864-.384-25.12-1.44C46.496 446.88 101.6 464 161.024 464c193.152 0 298.752-160 298.752-298.688 0-4.64-.16-9.12-.384-13.568 20.832-14.784 38.336-33.248 52.608-54.496z"/></svg><view id="user" viewBox="0 0 563.43 563.43"/><svg viewBox="0 0 563.43 563.43" width="563.43" height="563.43" xmlns="http://www.w3.org/2000/svg"><path d="M280.79 314.559c83.266 0 150.803-67.538 150.803-150.803S364.055 13.415 280.79 13.415 129.987 80.953 129.987 163.756s67.537 150.803 150.803 150.803zm0-261.824c61.061 0 111.021 49.959 111.021 111.021s-49.96 111.02-111.021 111.02-111.021-49.959-111.021-111.021 49.959-111.02 111.021-111.02zM19.891 550.015h523.648c11.102 0 19.891-8.789 19.891-19.891 0-104.082-84.653-189.198-189.198-189.198H189.198C85.116 340.926 0 425.579 0 530.124c0 11.102 8.789 19.891 19.891 19.891zm169.307-169.307h185.034c75.864 0 138.313 56.436 148.028 129.524H41.17c9.714-72.625 72.164-129.524 148.028-129.524z"/></svg><view id="users" viewBox="512 563.43 512 512"/><svg viewBox="0 0 512 512" width="512" height="512" x="512" y="563.43" xmlns="http://www.w3.org/2000/svg"><path d="M270.948 302.936c-10.562-14.943-27.525-24.074-45.713-24.765a10.536 10.536 0 0 0-1.171-.067c-23.135 0-42.252-17.484-44.859-39.93 6.661-4.851 12.807-11.007 18.254-18.381 11.015-14.913 18.165-33.547 20.816-53.698a10.612 10.612 0 0 0 1.987-3.081c4.664-11.106 7.029-22.963 7.029-35.242 0-47.221-35.702-85.637-79.584-85.637-11.349 0-22.36 2.578-32.768 7.665a58.587 58.587 0 0 0-11.365 2.088c-36.686 10.599-57.421 54.957-46.22 98.88a97.99 97.99 0 0 0 4.262 12.916 10.62 10.62 0 0 0 1.88 3c4.225 31.022 18.908 56.833 38.989 71.434-2.581 22.474-21.712 39.988-44.867 39.988-.356 0-.708.019-1.056.053C25.185 279.268 0 305.121 0 336.763v63.14c0 5.891 4.775 10.666 10.666 10.666h188.451c5.89 0 10.666-4.775 10.666-10.666s-4.776-10.666-10.666-10.666H21.331v-52.475c0-20.585 16.746-37.33 37.33-37.33.356 0 .708-.019 1.056-.053a66.076 66.076 0 0 0 21.858-4.429l50.497 72.883a10.667 10.667 0 0 0 17.534 0l50.498-72.883a66.08 66.08 0 0 0 21.858 4.429c.348.034.7.053 1.056.053 12.105 0 23.511 5.912 30.51 15.815a10.652 10.652 0 0 0 8.719 4.51c2.128 0 4.277-.636 6.147-1.957 4.811-3.398 5.953-10.054 2.554-14.864zM109.492 72.377a37.888 37.888 0 0 1 8.796-1.425 10.656 10.656 0 0 0 4.482-1.213c7.926-4.164 16.314-6.276 24.933-6.276 31.47 0 57.174 27.694 58.204 62.162a38.069 38.069 0 0 0-23.035-7.733h-55.779c-2.778 0-5.416-.872-7.625-2.521a12.77 12.77 0 0 1-4.224-5.482 12.478 12.478 0 0 0-12.383-7.806 12.523 12.523 0 0 0-11.338 9.361c-2.721 10.453-7.801 20.188-14.708 28.455-5.532-30.926 8.398-60.507 32.677-67.522zm-25.013 90.328a95.275 95.275 0 0 0 22.119-30.32l.11.081c5.925 4.422 12.973 6.758 20.384 6.758h55.779c6.7 0 12.487 3.92 15.234 9.577-.071 22.157-6.384 42.854-17.806 58.315-10.771 14.58-24.785 22.61-39.462 22.61-13.583 0-26.807-7.017-37.236-19.757-10.118-12.359-16.813-28.995-19.122-47.264zm56.359 180.326l-40.817-58.912c10.95-9.086 18.932-21.616 22.307-35.908a61.783 61.783 0 0 0 18.509 2.848c6.334 0 12.537-.961 18.52-2.817 3.379 14.278 11.358 26.796 22.3 35.876l-40.819 58.913z"/><path d="M455.441 337.455c-.348-.034-.7-.053-1.056-.053-23.167 0-42.305-17.531-44.871-40.023 13.062-9.512 23.832-23.774 30.931-41.119a10.666 10.666 0 0 0 10.196 7.548c3.232 0 6.36-1.473 8.417-4.114 14.881-19.112 22.616-43.986 21.784-70.041-.818-25.56-9.803-49.555-25.303-67.563-15.869-18.438-36.819-28.699-59.012-28.911-1.177-.048-4.104.053-4.577.082-11.402-5.172-23.45-7.588-35.858-7.194-25.625.819-49.196 13.591-66.369 35.963-16.688 21.741-25.355 50.098-24.404 79.85.161 5.041.559 9.683 1.203 14.103 1.737 12.679 5.23 24.822 10.381 36.091a10.664 10.664 0 0 0 18.799 1.13c.858-1.403 1.961-3.152 3.178-4.866 4.755 14.445 12.024 27.423 21.253 37.669a80.97 80.97 0 0 0 12.667 11.416c-2.586 22.469-21.715 39.977-44.866 39.977-.356 0-.708.019-1.056.053-31.374 1.112-56.558 26.967-56.558 58.607v63.14c0 5.891 4.776 10.666 10.666 10.666h260.346c5.89 0 10.666-4.775 10.666-10.666v-63.14c.002-31.638-25.183-57.492-56.557-58.605zm-165.329-111.83a112.623 112.623 0 0 1-2.467-12.626c-.54-3.708-.868-7.568-1.003-11.799-.794-24.837 6.31-48.341 20.004-66.18 13.208-17.208 31.01-27.02 50.128-27.631.639-.021 14.387-.795 28.421 6.277 1.569.79 3.377 1.157 5.138 1.107.202-.006 5.677-.265 5.836-.263 16.02.106 31.362 7.741 43.203 21.497 12.331 14.328 19.487 33.622 20.149 54.329.359 11.247-1.221 22.18-4.567 32.239a101.5 101.5 0 0 0-3.369-7.932c-10.298-21.91-27.633-38.881-48.812-47.788a10.664 10.664 0 0 0-14.137 6.132 79.006 79.006 0 0 1-5.116 11.106c-5.584 9.986-16.842 15.927-29.361 15.489a86.322 86.322 0 0 0-5.666-.007c-9.223.295-18.217 2.053-26.78 5.242-8.458 3.192-22.672 11.201-31.601 20.808zm26.239 5.805a63.306 63.306 0 0 1 12.853-6.643c6.344-2.362 13.063-3.672 19.97-3.893a63.274 63.274 0 0 1 4.246.005c20.594.705 39.217-9.405 48.718-26.396a100.381 100.381 0 0 0 1.701-3.177c9.728 5.993 18.043 14.44 24.295 24.692-.054.316-.1.633-.126.959-1.636 20.237-8.617 38.809-19.658 52.295-10.429 12.741-23.653 19.757-37.236 19.757-25.11-.002-47.448-23.871-54.763-57.599zm36.303 76.062c6.003 1.876 12.194 2.866 18.46 2.866 6.384 0 12.597-.994 18.555-2.864 4.284 18.163 16.029 33.466 31.818 42.495-6.159 22.255-26.627 38.258-50.324 38.258-23.699 0-44.166-16.004-50.324-38.26 15.787-9.027 27.532-24.331 31.815-42.495zm138.015 141.045H251.654v-52.475c0-20.583 16.746-37.33 37.33-37.33.356 0 .708-.019 1.056-.053a66.46 66.46 0 0 0 10.775-1.209c9.265 30.416 37.613 52.11 70.347 52.11 32.734 0 61.081-21.694 70.348-52.109 3.5.69 7.101 1.094 10.773 1.208.348.034.7.053 1.056.053 20.584 0 37.33 16.746 37.33 37.33v52.475z"/></svg><view id="view" viewBox="2036.1799999999998 639 59.2 59.2"/><svg viewBox="0 0 59.2 59.2" width="59.2" height="59.2" x="2036.1799999999998" y="639" xmlns="http://www.w3.org/2000/svg"><path d="M51.062 21.561c-11.889-11.889-31.232-11.889-43.121 0L0 29.501l8.138 8.138c5.944 5.944 13.752 8.917 21.561 8.917s15.616-2.972 21.561-8.917l7.941-7.941-8.139-8.137zm-1.217 14.664c-11.109 11.108-29.184 11.108-40.293 0l-6.724-6.724 6.527-6.527c11.109-11.108 29.184-11.108 40.293 0l6.724 6.724-6.527 6.527z"/><path d="M28.572 21.57c-3.86 0-7 3.14-7 7a1 1 0 0 0 2 0c0-2.757 2.243-5 5-5a1 1 0 0 0 0-2z"/><path d="M29.572 16.57c-7.168 0-13 5.832-13 13s5.832 13 13 13 13-5.832 13-13-5.831-13-13-13zm0 24c-6.065 0-11-4.935-11-11s4.935-11 11-11 11 4.935 11 11-4.934 11-11 11z"/></svg><view id="youtube" viewBox="0 563.43 512 512"/><svg viewBox="0 0 512 512" width="512" height="512" y="563.43" xmlns="http://www.w3.org/2000/svg"><path d="M490.24 113.92c-13.888-24.704-28.96-29.248-59.648-30.976C399.936 80.864 322.848 80 256.064 80c-66.912 0-144.032.864-174.656 2.912-30.624 1.76-45.728 6.272-59.744 31.008C7.36 138.592 0 181.088 0 255.904v.256c0 74.496 7.36 117.312 21.664 141.728 14.016 24.704 29.088 29.184 59.712 31.264C112.032 430.944 189.152 432 256.064 432c66.784 0 143.872-1.056 174.56-2.816 30.688-2.08 45.76-6.56 59.648-31.264C504.704 373.504 512 330.688 512 256.192v-.256c0-74.848-7.296-117.344-21.76-142.016zM192 352V160l160 96-160 96z"/></svg></svg>