<svg id="Слой_1" data-name="Слой 1" xmlns="http://www.w3.org/2000/svg" viewBox="0 0 118.55 70.85"><defs><style>.cls-1{fill:#ffae00;}</style></defs><title>logo</title><path id="_417" data-name=" 417" class="cls-1" d="M35.36,1.64A2.16,2.16,0,0,0,35,.09,6.94,6.94,0,0,0,32.22-.2a10.91,10.91,0,0,0-3.46.37,3.37,3.37,0,0,0-1.61,1.41L2.46,40.81A26.19,26.19,0,0,0,.57,44.06,4.67,4.67,0,0,0,.44,45.3v5.07a2.74,2.74,0,0,0,.26,1.51,2.5,2.5,0,0,0,1.67.33H19.8V62a3,3,0,0,1-1.67,2.66A2.47,2.47,0,0,0,16.81,67a8.17,8.17,0,0,0,.31,3.08,2,2,0,0,0,1.63.46H37.25a3.18,3.18,0,0,0,1.63-.26A1.52,1.52,0,0,0,39.22,69v-2a2.51,2.51,0,0,0-1.36-2.44,4.43,4.43,0,0,1-2.51-4.23V52.2h4A2.37,2.37,0,0,0,41,51.81a2.38,2.38,0,0,0,.35-1.53V47.71a3,3,0,0,0-.44-1.92,2.55,2.55,0,0,0-1.85-.48H35.36ZM19.8,45.31H6.3L19.8,23.93V45.31ZM52.1,62.37q0,1.4-2.46,2.14a3,3,0,0,0-1.82,1,8.69,8.69,0,0,0-.24,2.7,3.92,3.92,0,0,0,.29,1.92,2,2,0,0,0,1.56.39H69.56q1.54,0,1.54-1.13a12.6,12.6,0,0,0-.29-3.56,3,3,0,0,0-1.56-1.29q-1.49-.74-1.5-1.7V-.28H64.1A3.54,3.54,0,0,0,62.43,0a27.39,27.39,0,0,0-3.17,3.73,36.49,36.49,0,0,1-7.12,7.11,30.92,30.92,0,0,1-5.76,3.53,5.07,5.07,0,0,0-2,1.11A2.4,2.4,0,0,0,44,17v1.75a1.26,1.26,0,0,0,1.36,1.48,21.45,21.45,0,0,0,6.73-1.35v43.5ZM101,26.85a85,85,0,0,0-7.65,18.61q-2.68,9.66-2.68,15.29a10.58,10.58,0,0,1-.22,2.6,1.83,1.83,0,0,1-1,1.16A3,3,0,0,0,88,65.57,7.18,7.18,0,0,0,87.76,68a4.32,4.32,0,0,0,.31,2.18,2,2,0,0,0,1.45.35H108.2a1.68,1.68,0,0,0,1.38-.35,9.31,9.31,0,0,0,.2-2.7q0-1.92-.92-2.4a4.06,4.06,0,0,1-1.89-2q-.48-1.18-.48-7.63a97.1,97.1,0,0,1,4.13-28.92q4.13-13.31,7.12-19.24A8.76,8.76,0,0,0,119,3.73V1.85a1.15,1.15,0,0,0-.2-.87A2.88,2.88,0,0,0,117.6.85H83.89a4.35,4.35,0,0,0-2.42.41,3.75,3.75,0,0,0-.66,2.25L79.53,18.31v.48q0,1,1.36,1,3.87,0,4.31-.68A15,15,0,0,0,86.26,17q1.19-2.88,3.34-2.88H108Z" transform="translate(-0.44 0.29)"/></svg>