<svg id="Вектор" xmlns="http://www.w3.org/2000/svg" xmlns:xlink="http://www.w3.org/1999/xlink" width="279" height="53" viewBox="0 0 279 53">
  <metadata><?xpacket begin="﻿" id="W5M0MpCehiHzreSzNTczkc9d"?>
<x:xmpmeta xmlns:x="adobe:ns:meta/" x:xmptk="Adobe XMP Core 5.6-c138 79.159824, 2016/09/14-01:09:01        ">
   <rdf:RDF xmlns:rdf="http://www.w3.org/1999/02/22-rdf-syntax-ns#">
      <rdf:Description rdf:about=""/>
   </rdf:RDF>
</x:xmpmeta>                         
<?xpacket end="w"?></metadata>
<defs>
    <style>
      .cls-1 {
        fill: #fdb02a;
        fill-rule: evenodd;
      }

      .cls-2 {
        fill: #fff;
        filter: url(#filter);
      }
    </style>
    <filter id="filter" x="0" y="47" width="279" height="6" filterUnits="userSpaceOnUse">
      <feFlood result="flood" flood-color="#fdb02a"/>
      <feComposite result="composite" operator="in" in2="SourceGraphic"/>
      <feBlend result="blend" in2="SourceGraphic"/>
    </filter>
  </defs>
  <path id="современный_стандарт_заказных_перевозок" data-name="современный стандарт заказных перевозок" class="cls-1" d="M103.606,9.161a2.7,2.7,0,0,1-.778,1.7,2.552,2.552,0,0,1-1.68.489,2.2,2.2,0,0,1-1.9-.945,4.289,4.289,0,0,1-.678-2.546V6.91A4.173,4.173,0,0,1,99.289,4.3a2.364,2.364,0,0,1,1.975-.919,2.268,2.268,0,0,1,1.6.528,2.81,2.81,0,0,1,.743,1.706h1.321a3.637,3.637,0,0,0-1.116-2.419,3.634,3.634,0,0,0-2.547-.874,3.959,3.959,0,0,0-2.108.557,3.671,3.671,0,0,0-1.407,1.6,5.529,5.529,0,0,0-.5,2.409V7.825a4.976,4.976,0,0,0,1.065,3.341,3.534,3.534,0,0,0,2.831,1.249,3.862,3.862,0,0,0,2.612-.847,3.6,3.6,0,0,0,1.167-2.406h-1.321Zm10.782-2.1a6.026,6.026,0,0,0-.493-2.521,3.68,3.68,0,0,0-1.407-1.653,3.9,3.9,0,0,0-2.112-.57,3.832,3.832,0,0,0-2.091.577,3.764,3.764,0,0,0-1.414,1.664,5.935,5.935,0,0,0-.5,2.5V7.771a5.767,5.767,0,0,0,.517,2.446,3.788,3.788,0,0,0,1.414,1.626,4.157,4.157,0,0,0,4.2,0,3.693,3.693,0,0,0,1.4-1.643,6,6,0,0,0,.493-2.521V7.063Zm-1.308.715a4.34,4.34,0,0,1-.718,2.622,2.555,2.555,0,0,1-3.961-.054,4.369,4.369,0,0,1-.722-2.662V6.961a4.273,4.273,0,0,1,.736-2.595,2.335,2.335,0,0,1,1.961-.935,2.359,2.359,0,0,1,1.992.935,4.357,4.357,0,0,1,.712,2.683V7.778Zm6.737,4.5a3.631,3.631,0,0,0,2.458-.756,2.612,2.612,0,0,0,.869-2.079,2.4,2.4,0,0,0-.469-1.488A2.31,2.31,0,0,0,121.4,7.11a2.568,2.568,0,0,0,1.082-.82,1.975,1.975,0,0,0,.4-1.218,2.369,2.369,0,0,0-.818-1.957,3.822,3.822,0,0,0-2.441-.661H116.36v9.826h3.457Zm0.048-4.6q1.958,0,1.958,1.775a1.635,1.635,0,0,1-.531,1.292,2.107,2.107,0,0,1-1.448.469h-2.17V7.683h2.191Zm-2.191-4.171h1.944a2.382,2.382,0,0,1,1.459.369,1.4,1.4,0,0,1,.479,1.18,1.419,1.419,0,0,1-.517,1.157,2.1,2.1,0,0,1-1.379.426h-1.986V3.513Zm11.077,4.92a3.9,3.9,0,0,0,2.6-.773,2.734,2.734,0,0,0,.907-2.2,2.773,2.773,0,0,0-.927-2.18,3.729,3.729,0,0,0-2.564-.823h-3.677v9.826H126.4V8.433h2.348ZM126.4,3.513h2.437a2.229,2.229,0,0,1,1.54.548,1.836,1.836,0,0,1,.562,1.406,1.777,1.777,0,0,1-.562,1.416,2.382,2.382,0,0,1-1.615.49H126.4V3.513Zm13.165,3.165h-4.32V3.513h4.95V2.453h-6.264v9.826h6.332V11.22h-5.018V7.737h4.32V6.678ZM141.9,2.453v9.826h1.315V8.453l-0.13-4.11,3.265,7.936h1.007l3.272-7.957-0.123,4.13v3.827h1.314V2.453h-1.7l-3.259,8.017L143.6,2.453h-1.7Zm17.875,4.225h-4.319V3.513h4.949V2.453h-6.264v9.826h6.333V11.22h-5.018V7.737h4.319V6.678Zm10-4.225h-1.322V6.678h-5.025V2.453h-1.314v9.826h1.314V7.737h5.025v4.542h1.322V2.453Zm10,0h-1.321V6.678h-5.025V2.453h-1.315v9.826h1.315V7.737h5.025v4.542h1.321V2.453Zm3.71,0h-1.314v9.826h3.813a3.585,3.585,0,0,0,2.41-.817,2.7,2.7,0,0,0,.883-2.119,2.642,2.642,0,0,0-.876-2.092,3.646,3.646,0,0,0-2.437-.79h-2.479V2.453Zm2.458,5.068a2.172,2.172,0,0,1,1.489.494,1.692,1.692,0,0,1,.524,1.312,1.809,1.809,0,0,1-.544,1.379,2.133,2.133,0,0,1-1.524.514h-2.4v-3.7h2.458Zm5.854-5.068h-1.315v9.826h1.315V2.453Zm3.813,7.572V2.453h-1.322v9.826H195.6l4.908-7.572v7.572h1.315V2.453h-1.315ZM199.115,0a0.986,0.986,0,0,1-.271.742,1.028,1.028,0,0,1-.749.263,1.014,1.014,0,0,1-.76-0.267A1.011,1.011,0,0,1,197.075,0h-1.034a1.668,1.668,0,0,0,.568,1.314,2.164,2.164,0,0,0,1.486.5,2.16,2.16,0,0,0,1.482-.5A1.673,1.673,0,0,0,200.142,0h-1.027ZM213.7,9.161a2.7,2.7,0,0,1-.777,1.7,2.557,2.557,0,0,1-1.681.489,2.2,2.2,0,0,1-1.9-.945,4.288,4.288,0,0,1-.678-2.546V6.91a4.173,4.173,0,0,1,.715-2.614,2.365,2.365,0,0,1,1.975-.919,2.268,2.268,0,0,1,1.6.528,2.8,2.8,0,0,1,.743,1.706h1.321a3.637,3.637,0,0,0-1.116-2.419,3.634,3.634,0,0,0-2.547-.874,3.96,3.96,0,0,0-2.108.557,3.673,3.673,0,0,0-1.407,1.6,5.529,5.529,0,0,0-.5,2.409V7.825a4.974,4.974,0,0,0,1.064,3.341,3.535,3.535,0,0,0,2.831,1.249,3.862,3.862,0,0,0,2.612-.847,3.594,3.594,0,0,0,1.167-2.406H213.7Zm9.8-6.708H215.8v1.06H219v8.767H220.3V3.513h3.2V2.453Zm7.141,9.826H232l-3.813-9.826h-1.15l-3.806,9.826h1.355l0.938-2.571H229.7Zm-3.04-8.227,1.7,4.6h-3.389ZM241,2.453h-1.321V6.678h-5.025V2.453h-1.315v9.826h1.315V7.737h5.025v4.542H241V2.453Zm11.46,8.766h-1.3V2.453H245.2l-0.219,4.2A11.279,11.279,0,0,1,244.5,9.3a5.158,5.158,0,0,1-1.024,1.92h-0.814l0.006,3.476h1.315V12.279h7.154v2.409h1.308Zm-6.6-1.925a12.143,12.143,0,0,0,.455-2.891l0.144-2.891h3.375V11.22h-4.86A6.718,6.718,0,0,0,245.863,9.295Zm14.723,2.985h1.348l-3.813-9.826h-1.15l-3.807,9.826h1.356l0.938-2.571h4.176Zm-3.04-8.227,1.7,4.6h-3.389Zm9.393,4.38a3.9,3.9,0,0,0,2.6-.773,2.737,2.737,0,0,0,.907-2.2,2.771,2.771,0,0,0-.928-2.18,3.727,3.727,0,0,0-2.564-.823h-3.676v9.826h1.314V8.433h2.349Zm-2.349-4.92h2.438a2.231,2.231,0,0,1,1.54.548,1.838,1.838,0,0,1,.561,1.406,1.78,1.78,0,0,1-.561,1.416,2.384,2.384,0,0,1-1.616.49H264.59V3.513Zm14.418-1.06H271.3v1.06h3.2v8.767H275.8V3.513h3.2V2.453ZM102.2,22.878a2.4,2.4,0,0,1-1.513.446H99.457v1.06h1.232q2.171,0.034,2.17,1.761a1.563,1.563,0,0,1-.64,1.3,2.74,2.74,0,0,1-1.715.493,2.4,2.4,0,0,1-1.581-.514,1.6,1.6,0,0,1-.623-1.288H96.985a2.579,2.579,0,0,0,.452,1.525,2.9,2.9,0,0,0,1.263.989,4.535,4.535,0,0,0,1.8.348,4.236,4.236,0,0,0,2.67-.777,2.518,2.518,0,0,0,1-2.1,2.269,2.269,0,0,0-1.76-2.3,2.845,2.845,0,0,0,1.185-.883,2.005,2.005,0,0,0,.424-1.241,2.482,2.482,0,0,0-.924-2.054A4.059,4.059,0,0,0,100.5,18.9a4.194,4.194,0,0,0-1.725.348,2.863,2.863,0,0,0-1.215.968,2.388,2.388,0,0,0-.435,1.4h1.315a1.464,1.464,0,0,1,.592-1.182,2.264,2.264,0,0,1,1.468-.478,2.54,2.54,0,0,1,1.626.463,1.514,1.514,0,0,1,.579,1.248A1.475,1.475,0,0,1,102.2,22.878Zm10.173,5.987h1.349L109.9,19.039h-1.15l-3.807,9.826H106.3l0.938-2.571h4.176Zm-3.039-8.227,1.7,4.6h-3.389Zm11.926,8.227h1.608L118.776,23.8l3.807-4.765h-1.636l-3.485,4.333h-1.027V19.039h-1.314v9.826h1.314V24.451h1.212Zm9.269,0h1.349l-3.813-9.826h-1.15L123.1,28.865h1.356l0.938-2.571h4.176Zm-3.039-8.227,1.7,4.6h-3.388Zm10.33,2.24a2.4,2.4,0,0,1-1.513.446h-1.225v1.06h1.232q2.171,0.034,2.17,1.761a1.563,1.563,0,0,1-.64,1.3,2.74,2.74,0,0,1-1.715.493,2.4,2.4,0,0,1-1.581-.514,1.6,1.6,0,0,1-.623-1.288H132.6a2.581,2.581,0,0,0,.452,1.525,2.9,2.9,0,0,0,1.263.989,4.536,4.536,0,0,0,1.8.348,4.236,4.236,0,0,0,2.67-.777,2.518,2.518,0,0,0,1-2.1,2.269,2.269,0,0,0-1.76-2.3,2.845,2.845,0,0,0,1.185-.883,2.005,2.005,0,0,0,.424-1.241,2.482,2.482,0,0,0-.924-2.054,4.059,4.059,0,0,0-2.595-.738,4.193,4.193,0,0,0-1.725.348,2.867,2.867,0,0,0-1.215.968,2.388,2.388,0,0,0-.435,1.4h1.315a1.463,1.463,0,0,1,.592-1.182,2.264,2.264,0,0,1,1.468-.478,2.54,2.54,0,0,1,1.626.463,1.514,1.514,0,0,1,.579,1.248A1.475,1.475,0,0,1,137.815,22.878Zm11.378-3.839h-1.321v4.225h-5.025V19.039h-1.314v9.826h1.314V24.323h5.025v4.542h1.321V19.039Zm3.711,0H151.59v9.826H155.4a3.586,3.586,0,0,0,2.41-.817,2.7,2.7,0,0,0,.883-2.119,2.639,2.639,0,0,0-.877-2.092,3.644,3.644,0,0,0-2.437-.79H152.9V19.039Zm2.458,5.068a2.174,2.174,0,0,1,1.489.494,1.691,1.691,0,0,1,.523,1.312,1.806,1.806,0,0,1-.544,1.379,2.13,2.13,0,0,1-1.523.514h-2.4v-3.7h2.458Zm5.853-5.068H159.9v9.826h1.314V19.039Zm3.4,0h-1.541l3.156,4.873L163,28.865h1.554l2.465-3.833,2.45,3.833h1.561l-3.224-4.953,3.149-4.873H169.41L167.021,22.8Zm19.025,0h-7.551v9.826h1.314V20.1h4.915v8.767h1.322V19.039Zm8.023,4.225h-4.32V20.1h4.95V19.039h-6.264v9.826h6.333V27.805h-5.019V24.323h4.32v-1.06Zm6,1.755a3.9,3.9,0,0,0,2.6-.773,2.738,2.738,0,0,0,.907-2.2,2.774,2.774,0,0,0-.928-2.18,3.729,3.729,0,0,0-2.564-.823H194v9.826h1.314V25.018h2.348Zm-2.348-4.92h2.437a2.232,2.232,0,0,1,1.541.548,1.838,1.838,0,0,1,.561,1.406,1.78,1.78,0,0,1-.561,1.416,2.384,2.384,0,0,1-1.616.49h-2.362V20.1Zm13.165,3.165h-4.32V20.1h4.95V19.039h-6.264v9.826h6.333V27.805H204.16V24.323h4.32v-1.06Zm5.792,5.6a3.631,3.631,0,0,0,2.458-.756,2.612,2.612,0,0,0,.869-2.079,2.4,2.4,0,0,0-.469-1.488,2.311,2.311,0,0,0-1.277-.847,2.568,2.568,0,0,0,1.082-.82,1.975,1.975,0,0,0,.4-1.218,2.369,2.369,0,0,0-.818-1.957,3.822,3.822,0,0,0-2.441-.661h-3.258v9.826h3.457Zm0.048-4.6q1.958,0,1.958,1.775a1.635,1.635,0,0,1-.531,1.292,2.107,2.107,0,0,1-1.448.469h-2.17V24.269h2.191ZM212.129,20.1h1.944a2.382,2.382,0,0,1,1.459.369,1.4,1.4,0,0,1,.479,1.18,1.419,1.419,0,0,1-.517,1.157,2.1,2.1,0,0,1-1.379.426h-1.986V20.1Zm15.082,3.55a6.026,6.026,0,0,0-.493-2.521,3.681,3.681,0,0,0-1.407-1.654,3.905,3.905,0,0,0-2.112-.57,3.832,3.832,0,0,0-2.091.577,3.765,3.765,0,0,0-1.414,1.664,5.936,5.936,0,0,0-.5,2.5v0.709a5.766,5.766,0,0,0,.517,2.446,3.788,3.788,0,0,0,1.414,1.626,4.157,4.157,0,0,0,4.2,0,3.692,3.692,0,0,0,1.4-1.643,6,6,0,0,0,.493-2.521V23.648Zm-1.308.715a4.34,4.34,0,0,1-.718,2.622,2.554,2.554,0,0,1-3.961-.054,4.368,4.368,0,0,1-.722-2.662V23.547a4.273,4.273,0,0,1,.736-2.595,2.335,2.335,0,0,1,1.961-.935,2.359,2.359,0,0,1,1.992.935,4.357,4.357,0,0,1,.712,2.683v0.729Zm7.88-1.486a2.4,2.4,0,0,1-1.513.446h-1.225v1.06h1.232q2.171,0.034,2.17,1.761a1.563,1.563,0,0,1-.64,1.3,2.74,2.74,0,0,1-1.715.493,2.4,2.4,0,0,1-1.581-.514,1.6,1.6,0,0,1-.623-1.288h-1.315a2.581,2.581,0,0,0,.452,1.525,2.892,2.892,0,0,0,1.263.989,4.536,4.536,0,0,0,1.8.348,4.236,4.236,0,0,0,2.67-.777,2.518,2.518,0,0,0,1-2.1,2.269,2.269,0,0,0-1.76-2.3,2.845,2.845,0,0,0,1.185-.883,2.005,2.005,0,0,0,.424-1.241,2.482,2.482,0,0,0-.924-2.054,4.059,4.059,0,0,0-2.595-.738,4.193,4.193,0,0,0-1.725.348,2.867,2.867,0,0,0-1.215.968,2.388,2.388,0,0,0-.435,1.4h1.315a1.463,1.463,0,0,1,.592-1.182,2.262,2.262,0,0,1,1.468-.478,2.54,2.54,0,0,1,1.626.463,1.514,1.514,0,0,1,.579,1.248A1.475,1.475,0,0,1,233.783,22.878Zm11.385,0.77a6.026,6.026,0,0,0-.493-2.521,3.681,3.681,0,0,0-1.407-1.654,3.905,3.905,0,0,0-2.112-.57,3.832,3.832,0,0,0-2.091.577,3.771,3.771,0,0,0-1.414,1.664,5.936,5.936,0,0,0-.5,2.5v0.709a5.782,5.782,0,0,0,.517,2.446,3.788,3.788,0,0,0,1.414,1.626,4.157,4.157,0,0,0,4.2,0,3.692,3.692,0,0,0,1.4-1.643,6,6,0,0,0,.493-2.521V23.648Zm-1.307.715a4.347,4.347,0,0,1-.719,2.622,2.554,2.554,0,0,1-3.961-.054,4.368,4.368,0,0,1-.722-2.662V23.547a4.273,4.273,0,0,1,.736-2.595,2.335,2.335,0,0,1,1.961-.935,2.362,2.362,0,0,1,1.993.935,4.364,4.364,0,0,1,.712,2.683v0.729Zm9.475,4.5h1.608L250.857,23.8l3.807-4.765h-1.637l-3.484,4.333h-1.027V19.039H247.2v9.826h1.314V24.451h1.212Z"/>
  <path id="_417" data-name="417" class="cls-1" d="M31.457,1.361A1.533,1.533,0,0,0,31.21.267a4.826,4.826,0,0,0-1.944-.2,7.581,7.581,0,0,0-2.422.26,2.364,2.364,0,0,0-1.126.994L8.423,29.014a18.523,18.523,0,0,0-1.323,2.3,3.32,3.32,0,0,0-.092.878l0.008,3.576A1.949,1.949,0,0,0,7.2,36.827a1.74,1.74,0,0,0,1.17.231H20.56v6.93a2.085,2.085,0,0,1-1.17,1.879,1.747,1.747,0,0,0-.924,1.632,5.811,5.811,0,0,0,.215,2.171,1.373,1.373,0,0,0,1.139.323h12.96a2.209,2.209,0,0,0,1.139-.185,1.077,1.077,0,0,0,.246-0.862V47.561a1.776,1.776,0,0,0-.954-1.725,3.132,3.132,0,0,1-1.755-2.988v-5.79h2.8a1.653,1.653,0,0,0,1.17-.277,1.689,1.689,0,0,0,.246-1.078V33.886a2.111,2.111,0,0,0-.308-1.355,1.777,1.777,0,0,0-1.293-.339H31.457V1.361ZM20.56,32.192h-9.45L20.56,17.1V32.192ZM43.185,44.235q0,0.986-1.724,1.509a2.115,2.115,0,0,0-1.278.708,6.184,6.184,0,0,0-.169,1.91,2.79,2.79,0,0,0,.2,1.355,1.406,1.406,0,0,0,1.093.277h14.1q1.077,0,1.077-.8a8.963,8.963,0,0,0-.2-2.51,2.114,2.114,0,0,0-1.093-.909,1.5,1.5,0,0,1-1.047-1.2V0.005H51.589a2.459,2.459,0,0,0-1.17.2A19.29,19.29,0,0,0,48.2,2.839a25.657,25.657,0,0,1-4.987,5.02,21.617,21.617,0,0,1-4.033,2.495,3.54,3.54,0,0,0-1.385.785,1.707,1.707,0,0,0-.277,1.063v1.232a0.887,0.887,0,0,0,.954,1.047,14.913,14.913,0,0,0,4.71-.955V44.235ZM77.416,19.163A60.243,60.243,0,0,0,72.061,32.3a43.509,43.509,0,0,0-1.879,10.8,7.528,7.528,0,0,1-.154,1.833,1.291,1.291,0,0,1-.708.816,2.116,2.116,0,0,0-1,.755,5.111,5.111,0,0,0-.169,1.709,3.071,3.071,0,0,0,.215,1.54,1.412,1.412,0,0,0,1.016.246H82.465a1.168,1.168,0,0,0,.97-0.246,6.628,6.628,0,0,0,.139-1.91,1.765,1.765,0,0,0-.647-1.694A2.857,2.857,0,0,1,81.6,44.758a22.6,22.6,0,0,1-.339-5.39,69.069,69.069,0,0,1,2.894-20.421A97.286,97.286,0,0,1,89.145,5.365a6.23,6.23,0,0,0,.862-2.526V1.515A0.819,0.819,0,0,0,89.868.9,2.009,2.009,0,0,0,89.052.806H65.442a3.022,3.022,0,0,0-1.693.293,2.663,2.663,0,0,0-.462,1.586L62.394,13.126v0.339q0,0.709.954,0.708,2.708,0,3.017-.477A10.593,10.593,0,0,0,67.1,12.2q0.831-2.033,2.339-2.033H82.311Z"/>
  <rect class="cls-2" y="47" width="279" height="6"/>
</svg>
